<?xml version="1.0" encoding="UTF-8"?>
<!DOCTYPE svg PUBLIC "-//W3C//DTD SVG 1.1//EN" "http://www.w3.org/Graphics/SVG/1.1/DTD/svg11.dtd">
<!-- Creator: CorelDRAW X7 -->
<svg xmlns="http://www.w3.org/2000/svg" xml:space="preserve" width="100%" height="100%" version="1.1" style="shape-rendering:geometricPrecision; text-rendering:geometricPrecision; image-rendering:optimizeQuality; fill-rule:evenodd; clip-rule:evenodd"
viewBox="0 0 19205 14169"
 xmlns:xlink="http://www.w3.org/1999/xlink">
 <defs>
  <style type="text/css">
   <![CDATA[
    .fil6 {fill:#313695}
    .fil4 {fill:#333333}
    .fil7 {fill:#4575B4}
    .fil8 {fill:#74ADD1}
    .fil15 {fill:#A50026}
    .fil9 {fill:#ABD9E9}
    .fil14 {fill:#D73027}
    .fil10 {fill:#E0F3F8}
    .fil13 {fill:#F46D43}
    .fil12 {fill:#FDAE61}
    .fil11 {fill:#FEE090}
    .fil5 {fill:#333333;fill-rule:nonzero}
    .fil3 {fill:#74ADD1;fill-rule:nonzero}
    .fil2 {fill:#D73027;fill-rule:nonzero}
    .fil0 {fill:#F2F2F2;fill-rule:nonzero}
    .fil1 {fill:white;fill-rule:nonzero}
    .fnt0 {font-weight:normal;font-size:372.26px;font-family:'Open Sans'}
    .fnt1 {font-weight:normal;font-size:434.31px;font-family:'Open Sans'}
    .fnt2 {font-weight:normal;font-size:496.35px;font-family:'Open Sans'}
   ]]>
  </style>
 </defs>
 <g id="Layer_x0020_1">
  <metadata id="CorelCorpID_0Corel-Layer"/>
  <g id="_1994747383424">
   <polygon class="fil0" points="1367,13693 19205,13693 19205,581 1367,581 "/>
   <g>
    <polygon class="fil1" points="19205,11195 1367,11195 1367,11165 19205,11165 "/>
   </g>
   <g>
    <polygon class="fil1" points="19205,7620 1367,7620 1367,7590 19205,7590 "/>
   </g>
   <g>
    <polygon class="fil1" points="19205,4046 1367,4046 1367,4016 19205,4016 "/>
   </g>
   <g>
    <polygon class="fil1" points="2110,581 2110,13557 2080,13557 2080,581 "/>
   </g>
   <g>
    <polygon class="fil1" points="7251,581 7251,13557 7221,13557 7221,581 "/>
   </g>
   <g>
    <polygon class="fil1" points="12392,581 12392,13557 12362,13557 12362,581 "/>
   </g>
   <g>
    <polygon class="fil1" points="17533,581 17533,13557 17504,13557 17504,581 "/>
   </g>
   <g>
    <polygon class="fil1" points="19205,12982 1367,12982 1367,12953 19205,12953 "/>
   </g>
   <g>
    <polygon class="fil1" points="19205,9408 1367,9408 1367,9378 19205,9378 "/>
   </g>
   <g>
    <polygon class="fil1" points="19205,5833 1367,5833 1367,5803 19205,5803 "/>
   </g>
   <g>
    <polygon class="fil1" points="19205,2258 1367,2258 1367,2229 19205,2229 "/>
   </g>
   <g>
    <polygon class="fil1" points="4680,581 4680,13557 4651,13557 4651,581 "/>
   </g>
   <g>
    <polygon class="fil1" points="9822,581 9822,13557 9792,13557 9792,581 "/>
   </g>
   <g>
    <polygon class="fil1" points="14963,581 14963,13557 14933,13557 14933,581 "/>
   </g>
   <g>
    <polygon class="fil2" points="1716,12967 2570,12967 2570,12610 1716,12610 "/>
    <path id="1" class="fil0" d="M2570 12997l-854 0 0 -59 854 0 29 29 -29 30zm0 -59c16,0 29,13 29,29 0,17 -13,30 -29,30l0 -59zm29 -328l0 357 -59 0 0 -357 30 -30 29 30zm-59 0c0,-16 13,-30 30,-30 16,0 29,14 29,30l-59 0zm-824 -30l854 0 0 60 -854 0 -30 -30 30 -30zm0 60c-17,0 -30,-14 -30,-30 0,-16 13,-30 30,-30l0 60zm-30 327l0 -357 60 0 0 357 -30 30 -30 -30zm60 0c0,17 -14,30 -30,30 -17,0 -30,-13 -30,-30l60 0z"/>
   </g>
   <g>
    <polygon class="fil2" points="2570,12967 3423,12967 3423,12967 "/>
    <path id="1" class="fil0" d="M3423 12997l-853 0 0 -59 853 0 0 59zm0 -59c17,0 30,13 30,29 0,17 -13,30 -30,30l0 -59zm0 29l0 0 0 0 0 0 0 30 0 -30zm0 -29c17,0 30,13 30,29 0,17 -13,30 -30,30l0 -59zm-853 0l853 0 0 59 -853 0 0 -59zm0 59c-17,0 -30,-13 -30,-30 0,-16 13,-29 30,-29l0 59z"/>
   </g>
   <g>
    <polygon class="fil3" points="3423,12967 4277,12967 4277,12610 3423,12610 "/>
    <path id="1" class="fil0" d="M4277 12997l-854 0 0 -59 854 0 30 29 -30 30zm0 -59c16,0 30,13 30,29 0,17 -14,30 -30,30l0 -59zm30 -328l0 357 -60 0 0 -357 30 -30 30 30zm-60 0c0,-16 13,-30 30,-30 16,0 30,14 30,30l-60 0zm-824 -30l854 0 0 60 -854 0 -30 -30 30 -30zm0 60c-16,0 -30,-14 -30,-30 0,-16 14,-30 30,-30l0 60zm-30 327l0 -357 60 0 0 357 -30 30 -30 -30zm60 0c0,17 -14,30 -30,30 -16,0 -30,-13 -30,-30l60 0z"/>
   </g>
   <g>
    <polygon class="fil3" points="4277,12967 5131,12967 5131,12610 4277,12610 "/>
    <path id="1" class="fil0" d="M5131 12997l-854 0 0 -59 854 0 29 29 -29 30zm0 -59c16,0 29,13 29,29 0,17 -13,30 -29,30l0 -59zm29 -328l0 357 -59 0 0 -357 30 -30 29 30zm-59 0c0,-16 13,-30 30,-30 16,0 29,14 29,30l-59 0zm-824 -30l854 0 0 60 -854 0 -30 -30 30 -30zm0 60c-17,0 -30,-14 -30,-30 0,-16 13,-30 30,-30l0 60zm-30 327l0 -357 60 0 0 357 -30 30 -30 -30zm60 0c0,17 -14,30 -30,30 -17,0 -30,-13 -30,-30l60 0z"/>
   </g>
   <g>
    <polygon class="fil3" points="5131,12967 5984,12967 5984,12253 5131,12253 "/>
    <path id="1" class="fil0" d="M5984 12997l-853 0 0 -59 853 0 30 29 -30 30zm0 -59c17,0 30,13 30,29 0,17 -13,30 -30,30l0 -59zm30 -685l0 714 -59 0 0 -714 29 -30 30 30zm-59 0c0,-17 13,-30 29,-30 17,0 30,13 30,30l-59 0zm-824 -30l853 0 0 59 -853 0 -30 -29 30 -30zm0 59c-17,0 -30,-13 -30,-29 0,-17 13,-30 30,-30l0 59zm-30 685l0 -714 59 0 0 714 -29 30 -30 -30zm59 0c0,17 -13,30 -29,30 -17,0 -30,-13 -30,-30l59 0z"/>
   </g>
   <g>
    <polygon class="fil3" points="5984,12967 6838,12967 6838,9035 5984,9035 "/>
    <path id="1" class="fil0" d="M6838 12997l-854 0 0 -59 854 0 30 29 -30 30zm0 -59c17,0 30,13 30,29 0,17 -13,30 -30,30l0 -59zm30 -3903l0 3932 -60 0 0 -3932 30 -30 30 30zm-60 0c0,-16 14,-30 30,-30 17,0 30,14 30,30l-60 0zm-824 -30l854 0 0 60 -854 0 -29 -30 29 -30zm0 60c-16,0 -29,-13 -29,-30 0,-16 13,-30 29,-30l0 60zm-29 3902l0 -3932 59 0 0 3932 -30 30 -29 -30zm59 0c0,17 -13,30 -30,30 -16,0 -29,-13 -29,-30l59 0z"/>
   </g>
   <g>
    <polygon class="fil3" points="6838,12967 7692,12967 7692,9393 6838,9393 "/>
    <path id="1" class="fil0" d="M7692 12997l-854 0 0 -59 854 0 29 29 -29 30zm0 -59c16,0 29,13 29,29 0,17 -13,30 -29,30l0 -59zm29 -3545l0 3574 -59 0 0 -3574 30 -30 29 30zm-59 0c0,-17 13,-30 30,-30 16,0 29,13 29,30l-59 0zm-824 -30l854 0 0 60 -854 0 -30 -30 30 -30zm0 60c-17,0 -30,-14 -30,-30 0,-17 13,-30 30,-30l0 60zm-30 3544l0 -3574 60 0 0 3574 -30 30 -30 -30zm60 0c0,17 -14,30 -30,30 -17,0 -30,-13 -30,-30l60 0z"/>
   </g>
   <g>
    <polygon class="fil3" points="7692,12967 8545,12967 8545,9035 7692,9035 "/>
    <path id="1" class="fil0" d="M8545 12997l-853 0 0 -59 853 0 30 29 -30 30zm0 -59c17,0 30,13 30,29 0,17 -13,30 -30,30l0 -59zm30 -3903l0 3932 -59 0 0 -3932 29 -30 30 30zm-59 0c0,-16 13,-30 29,-30 17,0 30,14 30,30l-59 0zm-824 -30l853 0 0 60 -853 0 -30 -30 30 -30zm0 60c-17,0 -30,-13 -30,-30 0,-16 13,-30 30,-30l0 60zm-30 3902l0 -3932 59 0 0 3932 -29 30 -30 -30zm59 0c0,17 -13,30 -29,30 -17,0 -30,-13 -30,-30l59 0z"/>
   </g>
   <g>
    <polygon class="fil3" points="8545,12967 9399,12967 9399,3316 8545,3316 "/>
    <path id="1" class="fil0" d="M9399 12997l-854 0 0 -59 854 0 30 29 -30 30zm0 -59c16,0 30,13 30,29 0,17 -14,30 -30,30l0 -59zm30 -9622l0 9651 -60 0 0 -9651 30 -30 30 30zm-60 0c0,-17 14,-30 30,-30 16,0 30,13 30,30l-60 0zm-824 -30l854 0 0 60 -854 0 -29 -30 29 -30zm0 60c-16,0 -29,-14 -29,-30 0,-17 13,-30 29,-30l0 60zm-29 9621l0 -9651 59 0 0 9651 -30 30 -29 -30zm59 0c0,17 -13,30 -30,30 -16,0 -29,-13 -29,-30l59 0z"/>
   </g>
   <g>
    <polygon class="fil3" points="9399,12967 10253,12967 10253,2601 9399,2601 "/>
    <path id="1" class="fil0" d="M10253 12997l-854 0 0 -59 854 0 29 29 -29 30zm0 -59c16,0 29,13 29,29 0,17 -13,30 -29,30l0 -59zm29 -10337l0 10366 -59 0 0 -10366 30 -30 29 30zm-59 0c0,-16 13,-30 30,-30 16,0 29,14 29,30l-59 0zm-824 -30l854 0 0 60 -854 0 -30 -30 30 -30zm0 60c-17,0 -30,-14 -30,-30 0,-16 13,-30 30,-30l0 60zm-30 10336l0 -10366 60 0 0 10366 -30 30 -30 -30zm60 0c0,17 -14,30 -30,30 -17,0 -30,-13 -30,-30l60 0z"/>
   </g>
   <g>
    <polygon class="fil3" points="10253,12967 11106,12967 11106,1171 10253,1171 "/>
    <path id="1" class="fil0" d="M11106 12997l-853 0 0 -59 853 0 30 29 -30 30zm0 -59c17,0 30,13 30,29 0,17 -13,30 -30,30l0 -59zm30 -11767l0 11796 -60 0 0 -11796 30 -30 30 30zm-60 0c0,-16 14,-30 30,-30 17,0 30,14 30,30l-60 0zm-823 -30l853 0 0 60 -853 0 -30 -30 30 -30zm0 60c-17,0 -30,-13 -30,-30 0,-16 13,-30 30,-30l0 60zm-30 11766l0 -11796 59 0 0 11796 -29 30 -30 -30zm59 0c0,17 -13,30 -29,30 -17,0 -30,-13 -30,-30l59 0z"/>
   </g>
   <g>
    <polygon class="fil3" points="11106,12967 11960,12967 11960,6176 11106,6176 "/>
    <path id="1" class="fil0" d="M11960 12997l-854 0 0 -59 854 0 30 29 -30 30zm0 -59c16,0 30,13 30,29 0,17 -14,30 -30,30l0 -59zm30 -6762l0 6791 -60 0 0 -6791 30 -30 30 30zm-60 0c0,-17 14,-30 30,-30 16,0 30,13 30,30l-60 0zm-824 -30l854 0 0 59 -854 0 -30 -29 30 -30zm0 59c-16,0 -30,-13 -30,-29 0,-17 14,-30 30,-30l0 59zm-30 6762l0 -6791 60 0 0 6791 -30 30 -30 -30zm60 0c0,17 -13,30 -30,30 -16,0 -30,-13 -30,-30l60 0z"/>
   </g>
   <g>
    <polygon class="fil3" points="11960,12967 12814,12967 12814,1171 11960,1171 "/>
    <path id="1" class="fil0" d="M12814 12997l-854 0 0 -59 854 0 30 29 -30 30zm0 -59c16,0 30,13 30,29 0,17 -14,30 -30,30l0 -59zm30 -11767l0 11796 -60 0 0 -11796 30 -30 30 30zm-60 0c0,-16 13,-30 30,-30 16,0 30,14 30,30l-60 0zm-824 -30l854 0 0 60 -854 0 -30 -30 30 -30zm0 60c-16,0 -30,-13 -30,-30 0,-16 14,-30 30,-30l0 60zm-30 11766l0 -11796 60 0 0 11796 -30 30 -30 -30zm60 0c0,17 -14,30 -30,30 -16,0 -30,-13 -30,-30l60 0z"/>
   </g>
   <g>
    <polygon class="fil3" points="12813,12967 13667,12967 13667,1171 12813,1171 "/>
    <path id="1" class="fil0" d="M13667 12997l-854 0 0 -59 854 0 30 29 -30 30zm0 -59c17,0 30,13 30,29 0,17 -13,30 -30,30l0 -59zm30 -11767l0 11796 -60 0 0 -11796 30 -30 30 30zm-60 0c0,-16 14,-30 30,-30 17,0 30,14 30,30l-60 0zm-824 -30l854 0 0 60 -854 0 -29 -30 29 -30zm0 60c-16,0 -29,-13 -29,-30 0,-16 13,-30 29,-30l0 60zm-29 11766l0 -11796 59 0 0 11796 -30 30 -29 -30zm59 0c0,17 -13,30 -30,30 -16,0 -29,-13 -29,-30l59 0z"/>
   </g>
   <g>
    <polygon class="fil3" points="13667,12967 14521,12967 14521,6176 13667,6176 "/>
    <path id="1" class="fil0" d="M14521 12997l-854 0 0 -59 854 0 30 29 -30 30zm0 -59c16,0 30,13 30,29 0,17 -14,30 -30,30l0 -59zm30 -6762l0 6791 -60 0 0 -6791 30 -30 30 30zm-60 0c0,-17 14,-30 30,-30 16,0 30,13 30,30l-60 0zm-824 -30l854 0 0 59 -854 0 -30 -29 30 -30zm0 59c-16,0 -30,-13 -30,-29 0,-17 14,-30 30,-30l0 59zm-30 6762l0 -6791 60 0 0 6791 -30 30 -30 -30zm60 0c0,17 -13,30 -30,30 -16,0 -30,-13 -30,-30l60 0z"/>
   </g>
   <g>
    <polygon class="fil3" points="14521,12967 15375,12967 15375,7963 14521,7963 "/>
    <path id="1" class="fil0" d="M15375 12997l-854 0 0 -59 854 0 30 29 -30 30zm0 -59c16,0 30,13 30,29 0,17 -14,30 -30,30l0 -59zm30 -4975l0 5004 -60 0 0 -5004 30 -30 30 30zm-60 0c0,-16 13,-30 30,-30 16,0 30,14 30,30l-60 0zm-824 -30l854 0 0 60 -854 0 -30 -30 30 -30zm0 60c-16,0 -30,-13 -30,-30 0,-16 14,-30 30,-30l0 60zm-30 4974l0 -5004 60 0 0 5004 -30 30 -30 -30zm60 0c0,17 -14,30 -30,30 -16,0 -30,-13 -30,-30l60 0z"/>
   </g>
   <g>
    <polygon class="fil3" points="15374,12967 16228,12967 16228,12610 15374,12610 "/>
    <path id="1" class="fil0" d="M16228 12997l-854 0 0 -59 854 0 30 29 -30 30zm0 -59c17,0 30,13 30,29 0,17 -13,30 -30,30l0 -59zm30 -328l0 357 -60 0 0 -357 30 -30 30 30zm-60 0c0,-16 14,-30 30,-30 17,0 30,14 30,30l-60 0zm-824 -30l854 0 0 60 -854 0 -29 -30 29 -30zm0 60c-16,0 -29,-14 -29,-30 0,-16 13,-30 29,-30l0 60zm-29 327l0 -357 59 0 0 357 -30 30 -29 -30zm59 0c0,17 -13,30 -30,30 -16,0 -29,-13 -29,-30l59 0z"/>
   </g>
   <g>
    <polygon class="fil3" points="16228,12967 17082,12967 17082,9750 16228,9750 "/>
    <path id="1" class="fil0" d="M17082 12997l-854 0 0 -59 854 0 30 29 -30 30zm0 -59c16,0 30,13 30,29 0,17 -14,30 -30,30l0 -59zm30 -3188l0 3217 -60 0 0 -3217 30 -29 30 29zm-60 0c0,-16 14,-29 30,-29 16,0 30,13 30,29l-60 0zm-824 -29l854 0 0 59 -854 0 -30 -30 30 -29zm0 59c-16,0 -30,-13 -30,-30 0,-16 14,-29 30,-29l0 59zm-30 3187l0 -3217 60 0 0 3217 -30 30 -30 -30zm60 0c0,17 -13,30 -30,30 -16,0 -30,-13 -30,-30l60 0z"/>
   </g>
   <g>
    <polygon class="fil3" points="17082,12967 17936,12967 17936,11180 17082,11180 "/>
    <path id="1" class="fil0" d="M17936 12997l-854 0 0 -59 854 0 30 29 -30 30zm0 -59c16,0 30,13 30,29 0,17 -14,30 -30,30l0 -59zm30 -1758l0 1787 -60 0 0 -1787 30 -30 30 30zm-60 0c0,-16 13,-30 30,-30 16,0 30,14 30,30l-60 0zm-824 -30l854 0 0 60 -854 0 -30 -30 30 -30zm0 60c-16,0 -30,-13 -30,-30 0,-16 14,-30 30,-30l0 60zm-30 1757l0 -1787 60 0 0 1787 -30 30 -30 -30zm60 0c0,17 -14,30 -30,30 -16,0 -30,-13 -30,-30l60 0z"/>
   </g>
   <g>
    <polygon class="fil2" points="17936,12967 18790,12967 18790,12610 17936,12610 "/>
    <path id="1" class="fil0" d="M18790 12997l-854 0 0 -59 854 0 29 29 -29 30zm0 -59c16,0 29,13 29,29 0,17 -13,30 -29,30l0 -59zm29 -328l0 357 -59 0 0 -357 30 -30 29 30zm-59 0c0,-16 13,-30 30,-30 16,0 29,14 29,30l-59 0zm-824 -30l854 0 0 60 -854 0 -30 -30 30 -30zm0 60c-17,0 -30,-14 -30,-30 0,-16 13,-30 30,-30l0 60zm-30 327l0 -357 60 0 0 357 -30 30 -30 -30zm60 0c0,17 -14,30 -30,30 -17,0 -30,-13 -30,-30l60 0z"/>
   </g>
   <text x="1028" y="13085"  class="fil4 fnt0">0</text>
   <text x="801" y="9493"  class="fil4 fnt0">10</text>
   <text x="801" y="5918"  class="fil4 fnt0">20</text>
   <text x="801" y="2361"  class="fil4 fnt0">30</text>
   <g>
    <polygon class="fil5" points="1368,12984 1283,12984 1283,12951 1368,12951 "/>
   </g>
   <g>
    <polygon class="fil5" points="1368,9410 1283,9410 1283,9376 1368,9376 "/>
   </g>
   <g>
    <polygon class="fil5" points="1368,5835 1283,5835 1283,5802 1368,5802 "/>
   </g>
   <g>
    <polygon class="fil5" points="1368,2260 1283,2260 1283,2227 1368,2227 "/>
   </g>
   <g>
    <polygon class="fil5" points="4682,13689 4682,13774 4649,13774 4649,13689 "/>
   </g>
   <g>
    <polygon class="fil5" points="9823,13689 9823,13774 9790,13774 9790,13689 "/>
   </g>
   <g>
    <polygon class="fil5" points="14964,13689 14964,13774 14931,13774 14931,13689 "/>
   </g>
   <text x="4506" y="14165"  class="fil4 fnt0">−4</text>
   <text x="9648" y="14165"  class="fil4 fnt0">−2</text>
   <text x="14870" y="14161"  class="fil4 fnt0">0</text>
   <g transform="matrix(0 -1 1 0 -17894.1 15852)">
    <text x="7999" y="18204"  class="fil4 fnt1">Frequency</text>
   </g>
   <text x="7298" y="377"  class="fil4 fnt2">LC50, log(parts per million)</text>
   <g>
    <rect class="fil6" x="3453" y="13025" width="1445" height="556"/>
    <rect class="fil7" x="4898" y="13025" width="1445" height="556"/>
    <rect class="fil8" x="6343" y="13025" width="1445" height="556"/>
    <rect class="fil9" x="7788" y="13025" width="1445" height="556"/>
    <rect class="fil10" x="9233" y="13025" width="1445" height="556"/>
    <rect class="fil11" x="10678" y="13025" width="1445" height="556"/>
    <rect class="fil12" x="12123" y="13025" width="1445" height="556"/>
    <rect class="fil13" x="13568" y="13025" width="1445" height="556"/>
    <rect class="fil14" x="15013" y="13025" width="1445" height="556"/>
    <rect class="fil15" x="16457" y="13025" width="1445" height="556"/>
   </g>
   <g>
    <polygon class="fil5" points="7274,13689 7274,13774 7240,13774 7240,13689 "/>
   </g>
   <text x="7098" y="14165"  class="fil4 fnt0">−</text>
   <text x="7311" y="14165"  class="fil4 fnt0">3</text>
   <g>
    <polygon class="fil5" points="12384,13689 12384,13774 12351,13774 12351,13689 "/>
   </g>
   <text x="12208" y="14165"  class="fil4 fnt0">−</text>
   <text x="12421" y="14165"  class="fil4 fnt0">1</text>
   <g>
    <polygon class="fil5" points="17575,13689 17575,13774 17542,13774 17542,13689 "/>
   </g>
   <text x="17481" y="14161"  class="fil4 fnt0">1</text>
  </g>
 </g>
</svg>
