<?xml version="1.0" encoding="UTF-8"?>
<!DOCTYPE svg PUBLIC "-//W3C//DTD SVG 1.1//EN" "http://www.w3.org/Graphics/SVG/1.1/DTD/svg11.dtd">
<!-- Creator: CorelDRAW X7 -->
<svg xmlns="http://www.w3.org/2000/svg" xml:space="preserve" width="100%" height="100%" version="1.1" style="shape-rendering:geometricPrecision; text-rendering:geometricPrecision; image-rendering:optimizeQuality; fill-rule:evenodd; clip-rule:evenodd"
viewBox="0 0 19207 14090"
 xmlns:xlink="http://www.w3.org/1999/xlink">
 <defs>
  <style type="text/css">
   <![CDATA[
    .str3 {stroke:#333333;stroke-width:33.28;stroke-linejoin:round}
    .str2 {stroke:#333333;stroke-width:33.28;stroke-linejoin:round}
    .str1 {stroke:#F2F2F2;stroke-width:59.71;stroke-linejoin:round}
    .str0 {stroke:white;stroke-width:29.85;stroke-linejoin:round}
    .fil2 {fill:none;fill-rule:nonzero}
    .fil4 {fill:#333333}
    .fil3 {fill:#74ADD1;fill-rule:nonzero}
    .fil0 {fill:#F2F2F2;fill-rule:nonzero}
    .fil1 {fill:white;fill-rule:nonzero}
    .fnt0 {font-weight:normal;font-size:373.17px;font-family:'Open Sans'}
    .fnt1 {font-weight:normal;font-size:435.36px;font-family:'Open Sans'}
    .fnt2 {font-weight:normal;font-size:497.56px;font-family:'Open Sans'}
   ]]>
  </style>
 </defs>
 <g id="Layer_x0020_1">
  <metadata id="CorelCorpID_0Corel-Layer"/>
  <g id="_1994920388720">
   <polygon class="fil0" points="1379,13590 19207,13590 19207,583 1379,583 "/>
   <g>
    <polygon class="fil1" points="19207,11688 1379,11688 1379,11658 19207,11658 "/>
   </g>
   <g>
    <polygon class="fil1" points="19207,9037 1379,9037 1379,9007 19207,9007 "/>
   </g>
   <g>
    <polygon class="fil1" points="19207,6386 1379,6386 1379,6356 19207,6356 "/>
   </g>
   <g>
    <polygon class="fil1" points="19207,3734 1379,3734 1379,3705 19207,3705 "/>
   </g>
   <g>
    <polygon class="fil1" points="19207,1083 1379,1083 1379,1053 19207,1053 "/>
   </g>
   <line class="fil2 str0" x1="4213" y1="13590" x2="4213" y2="583" />
   <line class="fil2 str0" x1="8163" y1="13590" x2="8163" y2="583" />
   <line class="fil2 str0" x1="12114" y1="13590" x2="12114" y2="583" />
   <line class="fil2 str0" x1="16064" y1="13590" x2="16064" y2="583" />
   <g>
    <polygon class="fil1" points="19207,13014 1379,13014 1379,12984 19207,12984 "/>
   </g>
   <g>
    <polygon class="fil1" points="19207,10363 1379,10363 1379,10333 19207,10333 "/>
   </g>
   <g>
    <polygon class="fil1" points="19207,7711 1379,7711 1379,7681 19207,7681 "/>
   </g>
   <g>
    <polygon class="fil1" points="19207,5060 1379,5060 1379,5030 19207,5030 "/>
   </g>
   <g>
    <polygon class="fil1" points="19207,2409 1379,2409 1379,2379 19207,2379 "/>
   </g>
   <line class="fil2 str0" x1="2237" y1="13590" x2="2237" y2="583" />
   <line class="fil2 str0" x1="6188" y1="13590" x2="6188" y2="583" />
   <line class="fil2 str0" x1="10138" y1="13590" x2="10138" y2="583" />
   <line class="fil2 str0" x1="14089" y1="13590" x2="14089" y2="583" />
   <line class="fil2 str0" x1="18040" y1="13590" x2="18040" y2="583" />
   <polygon class="fil3 str1" points="1813,12999 2662,12999 2662,1174 1813,1174 "/>
   <polygon class="fil3 str1" points="2662,12999 3510,12999 3510,11833 2662,11833 "/>
   <polygon class="fil3" points="3510,12999 4359,12999 4359,12999 "/>
   <polygon class="fil3" points="4359,12999 5208,12999 5208,12840 4359,12840 "/>
   <polygon class="fil3" points="5207,12999 6056,12999 6056,12787 5207,12787 "/>
   <polygon class="fil3" points="6056,12999 6905,12999 6905,12946 6056,12946 "/>
   <polygon class="fil3" points="6905,12999 7753,12999 7753,12946 6905,12946 "/>
   <polygon class="fil3" points="7753,12999 8602,12999 8602,12946 7753,12946 "/>
   <polygon class="fil3" points="8602,12999 9451,12999 9451,12999 "/>
   <polygon class="fil3" points="9451,12999 10300,12999 10300,12946 9451,12946 "/>
   <polygon class="fil3" points="10300,12999 11148,12999 11148,12999 "/>
   <polygon class="fil3" points="11148,12999 11997,12999 11997,12946 11148,12946 "/>
   <polygon class="fil3" points="11997,12999 12846,12999 12846,12999 "/>
   <polygon class="fil3" points="12846,12999 13694,12999 13694,12893 12846,12893 "/>
   <polygon class="fil3" points="13694,12999 14543,12999 14543,12999 "/>
   <polygon class="fil3" points="14543,12999 15392,12999 15392,12999 "/>
   <polygon class="fil3" points="15392,12999 16240,12999 16240,12999 "/>
   <polygon class="fil3" points="16240,12999 17089,12999 17089,12999 "/>
   <polygon class="fil3" points="17089,12999 17938,12999 17938,12999 "/>
   <polygon class="fil3" points="17938,12999 18786,12999 18786,12946 17938,12946 "/>
   <text x="998" y="13117"  class="fil4 fnt0">0</text>
   <text x="785" y="10466"  class="fil4 fnt0">50</text>
   <text x="572" y="7814"  class="fil4 fnt0">100</text>
   <text x="572" y="5163"  class="fil4 fnt0">150</text>
   <text x="572" y="2512"  class="fil4 fnt0">200</text>
   <line class="fil2 str2" x1="1298" y1="12999" x2="1383" y2="12999" />
   <line class="fil2 str2" x1="1298" y1="10348" x2="1383" y2="10348" />
   <line class="fil2 str2" x1="1298" y1="7696" x2="1383" y2="7696" />
   <line class="fil2 str2" x1="1298" y1="5045" x2="1383" y2="5045" />
   <line class="fil2 str2" x1="1298" y1="2394" x2="1383" y2="2394" />
   <line class="fil2 str3" x1="2237" y1="13675" x2="2237" y2="13590" />
   <line class="fil2 str3" x1="6188" y1="13675" x2="6188" y2="13590" />
   <line class="fil2 str3" x1="10138" y1="13675" x2="10138" y2="13590" />
   <line class="fil2 str3" x1="14089" y1="13675" x2="14089" y2="13590" />
   <line class="fil2 str3" x1="18040" y1="13675" x2="18040" y2="13590" />
   <text x="2142" y="14086"  class="fil4 fnt0">0</text>
   <g transform="matrix(0 -1 1 0 -13734.7 16944.3)">
    <text x="9050" y="14046"  class="fil4 fnt1">Frequency</text>
   </g>
   <text x="7798" y="378"  class="fil4 fnt2">LC50, parts per million</text>
   <text x="6099" y="14086"  class="fil4 fnt0">5</text>
   <text x="9927" y="14086"  class="fil4 fnt0">10</text>
   <text x="13892" y="14086"  class="fil4 fnt0">15</text>
   <text x="17826" y="14086"  class="fil4 fnt0">20</text>
  </g>
 </g>
</svg>
